<svg data-v-0dd9719b="" version="1.0" xmlns="http://www.w3.org/2000/svg" xmlns:xlink="http://www.w3.org/1999/xlink" width="100%" height="100%" viewBox="0 0 340.000000 250.000000" preserveAspectRatio="xMidYMid meet" color-interpolation-filters="sRGB" style="margin: auto;"> <rect data-v-0dd9719b="" x="0" y="0" width="100%" height="100%" fill="#fff" fill-opacity="1" class="background"></rect> <rect data-v-0dd9719b="" x="0" y="0" width="100%" height="100%" fill="url(#watermark)" fill-opacity="1" class="watermarklayer"></rect> <g data-v-0dd9719b="" fill="#333" class="icon-text-wrapper icon-svg-group iconsvg" transform="translate(55.27000427246094,100.13875007629395)"><g class="iconsvg-imagesvg" transform="translate(0,2.747793197631836)"><g><rect fill="#333" fill-opacity="0" stroke-width="2" x="0" y="0" width="60" height="44.22691355112631" class="image-rect"></rect> <svg x="0" y="0" width="60" height="44.22691355112631" filtersec="colorsb3268619397" class="image-svg-svg primary" style="overflow: visible;"><svg xmlns="http://www.w3.org/2000/svg" viewBox="-0.000016380474335164763 -0.017758673056960106 135.70216369628906 100.02776336669922"><g fill-rule="evenodd"><path d="M129.5 36.21a24.23 24.23 0 1 1-36.06 32.38c-14.28-15.9 2.14-30.53-5.75-39.32-8.06-9-14.66-1.54-21.41-9.06A12.12 12.12 0 0 1 84.31 4C91.07 11.54 83 17.3 91 26.27c7.88 8.79 24.2-6 38.47 9.94z" fill="#002d56"></path><path d="M62 31.23a13.4 13.4 0 1 1 18 19.95c-8.79 7.9-16.9-1.17-21.75 3.19s-.85 8.1-5 11.84a6.7 6.7 0 0 1-9-10c4.15-3.74 7.35.73 12.31-3.72S53.24 39.13 62 31.23z" fill="#00a4e4"></path><path d="M50.29 32.17a10.62 10.62 0 1 1-15.81 14.19c-6.26-7 .93-13.39-2.52-17.24s-6.43-.68-9.39-4a5.31 5.31 0 0 1 7.9-7.1c3 3.3-.58 5.82 3 9.76S44 25.19 50.29 32.17zM60.81 71.89a8.79 8.79 0 0 1 13.08-11.74c5.17 5.77-.78 11.08 2.08 14.26s5.32.56 7.77 3.29a4.39 4.39 0 0 1-6.54 5.87c-2.45-2.73.48-4.82-2.44-8.07s-8.78 2.16-14-3.61z" fill="#002d56"></path><path d="M97.23 78.71a10.65 10.65 0 1 1-10.65 10.64 10.64 10.64 0 0 1 10.65-10.64z" fill="#00a4e4"></path><path d="M84.07 63.68a4.82 4.82 0 1 1-4.82 4.81 4.81 4.81 0 0 1 4.82-4.81z" fill="#002d56"></path><path d="M99.53 9.17a7.34 7.34 0 1 1-7.33 7.33 7.34 7.34 0 0 1 7.33-7.33zM47.47 8A8.49 8.49 0 1 1 39 16.5 8.48 8.48 0 0 1 47.47 8zM12.23 31.75A12.23 12.23 0 1 1 0 44a12.23 12.23 0 0 1 12.23-12.25z" fill="#00a4e4"></path><path d="M30.28 52a6 6 0 1 1-6 6 6 6 0 0 1 6-6z" fill="#002d56"></path></g></svg></svg> <!----></g></g> <g transform="translate(67,0)"><g data-gra="path-name" fill-rule="" class="tp-name iconsvg-namesvg" transform="translate(0,0)"><g transform="scale(1)"><g><path d="M11.32-14.98L11.32 4.46 14.45 4.46 14.45 0.88 23.03 0.88 23.03 4.46 26.33 4.46 26.33-16.03Q26.65-16.73 27.25-17.65L27.25-17.65 24.15-19.05 23.03-17.3 14.45-17.3 14.45-18.77 14.24-18.77Q16.45-22.25 17.16-26.58L17.16-26.58 28.37-26.58 28.37-28.83 8.82-28.83 8.82-26.58 13.39-26.58Q12.13-19.48 8.82-13.64L8.82-13.64 9.07-13.5Q10.2-14.1 11.32-14.98L11.32-14.98ZM23.03-1.27L14.45-1.27 14.45-15.05 23.03-15.05 23.03-1.27ZM52.77 4.68L52.77 4.68Q56.25 4.75 56.71 0.95L56.71 0.95 56.71-7.38Q56.71-8.96 56.14-10.48L56.14-10.48Q56.85-10.48 57.45-10.69L57.45-10.69Q57.69-6.79 58.83-3.23 59.98 0.32 63 2.5L63 2.5Q61.98-0.14 64.05-2.25L64.05-2.25Q61.91-3.45 60.43-5.8 58.96-8.16 58.39-11.04L58.39-11.04Q60.86-12.06 63-14.91L63-14.91 59.41-16.24Q58.18-13.36 55.9-11.04L55.9-11.04Q54.84-13.46 52.77-14.63L52.77-14.63Q54.07-15.89 55.13-17.93L55.13-17.93 60.47-17.93 60.47-20.18 47.88-20.18 47.88-17.93 51.4-17.93Q48.97-13.25 44.79-10.9L44.79-10.9 45-10.62Q48.76-11.29 51.93-13.85L51.93-13.85 51.96-13.78 52.31-13.08Q49.18-8.05 44.54-5.13L44.54-5.13 44.72-4.71Q49.54-5.59 53.51-10.13L53.51-10.13 53.72-8.65Q49.71-2.57 44.26 0.81L44.26 0.81 44.54 1.09Q49.61 0.25 54-4.15L54-4.15 54-1.2Q54.25 0.98 52.38 1.37L52.38 1.37Q50.94 1.37 49.68 1.09L49.68 1.09 49.68 1.58Q51.86 2.18 52.14 4.25L52.14 4.25Q52.21 4.68 52.77 4.68L52.77 4.68ZM45.91-20.53L45.91-20.53Q47.64-20.67 47.88-23.55L47.88-23.55 60.29-23.55Q60.08-22.08 59.8-21.02L59.8-21.02 60.01-20.53Q62.58-22.68 63.35-25.17L63.35-25.17 64.3-26.65 61.21-27.49 60.29-25.8 55.86-25.8Q56.36-26.75 55.97-27.91L55.97-27.91Q55.02-29.71 52.21-30.02L52.21-30.02 51.96-29.74Q52.7-28.09 52.91-27.35L52.91-27.35Q53.12-26.61 53.26-25.95L53.26-25.95 53.26-25.8 47.71-25.8Q47.32-27.07 46.9-28.05L46.9-28.05 46.58-28.05Q46.37-25.49 45.7-24.47L45.7-24.47Q45.07-23.48 44.65-22.78L44.65-22.78Q44.3-20.64 45.91-20.53L45.91-20.53ZM80.09 4.46L80.26 4.75Q85.11-0.28 84.97-8.44L84.97-8.44 84.97-22.92 100.27-22.92 100.27-25.73 92.95-25.73Q93.13-25.84 93.3-26.09L93.3-26.09Q93.94-28.16 92.78-29.07 91.62-29.99 90.04-29.95L90.04-29.95 88.56-29.95 88.35-29.6Q89.09-29.25 89.58-27.91L89.58-27.91Q89.75-26.61 90.7-25.73L90.7-25.73 84.97-25.73 84.97-27.07 81.88-27.07 81.88-9.07Q82.27-1.3 80.09 4.46L80.09 4.46ZM83.85 1.51L83.85 3.97 100.27 3.97 100.27 1.51 93.76 1.51 93.76-11.11 98.68-11.11 98.68-13.64 93.76-13.64 93.76-21.23 90.67-21.23 90.67-13.64 85.64-13.64 85.64-11.11 90.67-11.11 90.67 1.51 83.85 1.51ZM125.16-25.17L125.16 3.9 128.14 3.9 128.14 1.16 132.26 1.16 132.26 3.9 135.25 3.9 135.25-22.78Q135.35-23.38 135.98-24.33L135.98-24.33 132.75-25.45 132.05-23.77 128.04-23.77Q130.5-25.84 131.48-29.67L131.48-29.67 127.86-29.67 127.86-27.84Q127.86-26.54 127.55-25.17L127.55-25.17 125.16-25.17ZM119.25-8.86L119.25 3.9 122.48 3.9 122.48-16.95Q122.7-16.1 122.91-14.55L122.91-14.55Q123.01-11.25 124.1-11.39L124.1-11.39Q124.98-11.6 125.02-14.06L125.02-14.06Q125.02-15.96 122.48-18.7L122.48-18.7 122.48-22.92 124.28-22.92 124.28-25.17 122.48-25.17 122.48-29.39 119.25-29.39 119.25-25.17 116.51-25.17 116.51-22.92 119.25-22.92 119.25-19.05 117.53-19.05 117.53-12.45Q117.39-7.42 116.16-3.02L116.16-3.02 116.4-2.74Q117.77-5.27 119.25-8.86L119.25-8.86ZM132.26-1.05L128.14-1.05 128.14-10.9 132.26-10.9 132.26-1.05ZM132.26-13.15L128.14-13.15 128.14-21.3 132.26-21.3 132.26-13.15ZM167.06 4.46L167.06 4.46Q168.61 4.57 169.91 3.87 171.21 3.16 171.28 1.51L171.28 1.51 171.28-29.11 168.08-29.11 168.08 0Q168.08 0.88 167.17 0.88L167.17 0.88Q165.34 0.84 163.72 0.67L163.72 0.67 163.65 1.02Q166.22 1.72 166.22 3.48L166.22 3.48Q166.25 4.5 167.06 4.46L167.06 4.46ZM157.57 4.46L157.57 4.46Q159.68 4.5 160.61 3.78 161.54 3.06 162.07 1.16L162.07 1.16Q160.73 0.32 160.95-1.2L160.95-1.2Q161.19-2.57 161.51-4.22L161.51-4.22 161.16-4.43Q160.73-2.53 160.05-0.83 159.36 0.88 158.24 0.95L158.24 0.95Q157.01 1.02 157.11-0.14L157.11-0.14 157.11-15.89 159.82-15.89 159.82-11.32Q160.14-10.05 157.71-10.34L157.71-10.34 157.64-9.98Q158.84-9.32 158.94-8.09L158.94-8.09Q159.08-7 159.61-7.07L159.61-7.07Q160.42-7.07 161.4-7.66 162.39-8.26 162.49-9.7L162.49-9.7 162.49-17.44Q162.81-18.04 163.41-18.7L163.41-18.7 160.24-19.55 159.36-18.14 157.11-18.14 157.11-19.27 154.2-19.27 154.2 1.23Q154.02 4.61 157.57 4.46L157.57 4.46ZM152.16-17.86L152.37-17.58Q156.09-20.99 158.41-25.66L158.41-25.66Q159.54-24.82 160.14-23.48L160.14-23.48Q160.45-22.64 160.72-21.83 160.98-21.02 161.82-20.95L161.82-20.95Q162.67-20.99 163.18-21.94 163.69-22.89 163.16-23.98L163.16-23.98Q162.07-26.16 158.8-26.51L158.8-26.51Q159.33-28.09 159.82-29.67L159.82-29.67 155.99-29.67Q155-23.41 152.16-17.86L152.16-17.86ZM164.07-25.73L164.07-3.3 166.5-3.3 166.5-25.73 164.07-25.73Z" transform="translate(-8.819999694824219, 30.020000457763672)"></path></g> <!----> <!----> <!----> <!----> <!----> <!----> <!----></g></g> <g data-gra="path-slogan" fill-rule="" class="tp-slogan iconsvg-slogansvg" fill="#333" transform="translate(1.9141693115234375,40.77000045776367)"><!----> <!----> <g transform="scale(1, 1)"><g transform="scale(1)"><path d="M7.17-6.09L7.17-6.09L6.09-6.09Q6-7.73 3.94-7.83L3.94-7.83Q2.02-7.78 2.02-6.33L2.02-6.33Q2.02-5.39 3.05-5.25L3.05-5.25L5.48-4.69Q7.41-4.22 7.41-2.34L7.41-2.34Q7.36 0.05 4.03 0.14L4.03 0.14Q2.20 0.14 1.45-0.61L1.45-0.61Q0.52-1.31 0.56-2.77L0.56-2.77L1.69-2.77Q1.73-0.80 4.03-0.75L4.03-0.75Q6.28-0.80 6.33-2.20L6.33-2.20Q6.52-3.38 4.45-3.75L4.45-3.75L2.67-4.13Q0.84-4.64 0.84-6.19L0.84-6.19Q0.98-8.72 3.84-8.81L3.84-8.81Q7.08-8.81 7.17-6.09ZM10.03-5.06L14.53-5.06L14.53-8.58L15.70-8.58L15.70 0L14.53 0L14.53-3.98L10.03-3.98L10.03 0L8.86 0L8.86-8.58L10.03-8.58L10.03-5.06ZM17.67-8.58L18.84-8.58L18.84 0L17.67 0L17.67-8.58ZM20.11-1.92L20.11-2.77L21.19-2.77L21.19-2.16Q21.19-0.75 22.50-0.75L22.50-0.75Q23.86-0.75 23.86-2.25L23.86-2.25L23.86-8.58L25.03-8.58L25.03-2.30Q24.98 0.09 22.55 0.14L22.55 0.14Q20.25 0.09 20.11-1.92L20.11-1.92ZM27-8.58L28.17-8.58L28.17 0L27 0L27-8.58ZM35.81 0L34.97-2.48L31.50-2.48L30.61 0L29.44 0L32.67-8.58L33.98-8.58L37.08 0L35.81 0ZM33.23-7.31L31.88-3.52L34.55-3.52L33.28-7.31L33.23-7.31ZM38.95-1.03L44.25-1.03L44.25 0L37.50 0L37.50-0.94L42.75-7.59L37.88-7.59L37.88-8.58L44.25-8.58L44.25-7.59L38.95-1.03ZM46.55-5.06L51.05-5.06L51.05-8.58L52.22-8.58L52.22 0L51.05 0L51.05-3.98L46.55-3.98L46.55 0L45.38 0L45.38-8.58L46.55-8.58L46.55-5.06ZM59.67-3.19L59.67-8.58L60.84-8.58L60.84-3.05Q60.70 0.05 57.33 0.14L57.33 0.14Q54.19 0.05 54.05-2.86L54.05-2.86L54.05-8.58L55.22-8.58L55.22-3.19Q55.27-0.84 57.38-0.80L57.38-0.80Q59.67-0.84 59.67-3.19L59.67-3.19ZM68.30 0L67.45-2.48L63.98-2.48L63.09 0L61.92 0L65.16-8.58L66.47-8.58L69.56 0L68.30 0ZM65.72-7.31L64.36-3.52L67.03-3.52L65.77-7.31L65.72-7.31ZM72-8.58L76.31-1.64L76.31-8.58L77.44-8.58L77.44 0L76.13 0L71.77-6.94L71.72-6.94L71.72 0L70.59 0L70.59-8.58L72-8.58ZM85.64-3.61L83.02-3.61L83.02-4.59L86.77-4.59L86.77 0L86.02 0L85.73-1.08Q84.75 0.09 82.92 0.14L82.92 0.14Q81.19 0.14 80.25-0.75L80.25-0.75Q78.84-2.06 78.89-4.36L78.89-4.36Q79.22-8.63 82.97-8.81L82.97-8.81Q86.16-8.63 86.63-6L86.63-6L85.50-6Q85.03-7.78 82.92-7.83L82.92-7.83Q80.25-7.64 80.11-4.31L80.11-4.31Q80.11-0.75 82.97-0.75L82.97-0.75Q84-0.75 84.75-1.31L84.75-1.31Q85.69-2.06 85.64-3.61L85.64-3.61ZM95.11-7.64L93.05-7.64L93.05-4.97L95.11-4.97Q96.94-4.92 96.89-6.38L96.89-6.38Q96.89-7.64 95.11-7.64L95.11-7.64ZM95.58 0L91.88 0L91.88-8.58L95.67-8.58Q97.97-8.48 98.06-6.42L98.06-6.42Q98.06-5.16 96.94-4.64L96.94-4.64Q98.53-4.08 98.53-2.53L98.53-2.53Q98.39-0.09 95.58 0L95.58 0ZM95.30-3.98L93.05-3.98L93.05-0.98L95.53-0.98Q97.31-1.03 97.36-2.53L97.36-2.53Q97.36-3.98 95.30-3.98L95.30-3.98ZM106.64-4.27L106.64-4.27Q106.45-7.64 103.64-7.83L103.64-7.83Q100.78-7.69 100.64-4.27L100.64-4.27Q100.78-0.94 103.64-0.80L103.64-0.80Q106.45-0.98 106.64-4.27ZM107.81-4.27L107.81-4.27Q107.53 0 103.64 0.14L103.64 0.14Q99.70 0 99.42-4.27L99.42-4.27Q99.66-8.72 103.64-8.81L103.64-8.81Q107.53-8.67 107.81-4.27ZM116.34-6.05L116.34-6.05L115.22-6.05Q114.80-7.78 112.83-7.83L112.83-7.83Q110.11-7.69 110.02-4.36L110.02-4.36Q110.02-0.80 112.88-0.80L112.88-0.80Q114.84-0.84 115.31-3.19L115.31-3.19L116.44-3.19Q115.92 0.05 112.64 0.14L112.64 0.14Q108.89 0 108.80-4.31L108.80-4.31Q108.98-8.63 112.83-8.81L112.83-8.81Q115.88-8.72 116.34-6.05ZM118.97-5.06L123.47-5.06L123.47-8.58L124.64-8.58L124.64 0L123.47 0L123.47-3.98L118.97-3.98L118.97 0L117.80 0L117.80-8.58L118.97-8.58L118.97-5.06ZM132.09-3.19L132.09-8.58L133.27-8.58L133.27-3.05Q133.13 0.05 129.75 0.14L129.75 0.14Q126.61 0.05 126.47-2.86L126.47-2.86L126.47-8.58L127.64-8.58L127.64-3.19Q127.69-0.84 129.80-0.80L129.80-0.80Q132.09-0.84 132.09-3.19L132.09-3.19ZM140.72 0L139.88-2.48L136.41-2.48L135.52 0L134.34 0L137.58-8.58L138.89-8.58L141.98 0L140.72 0ZM138.14-7.31L136.78-3.52L139.45-3.52L138.19-7.31L138.14-7.31ZM144.42-8.58L148.73-1.64L148.73-8.58L149.86-8.58L149.86 0L148.55 0L144.19-6.94L144.14-6.94L144.14 0L143.02 0L143.02-8.58L144.42-8.58ZM158.06-3.61L155.44-3.61L155.44-4.59L159.19-4.59L159.19 0L158.44 0L158.16-1.08Q157.17 0.09 155.34 0.14L155.34 0.14Q153.61 0.14 152.67-0.75L152.67-0.75Q151.27-2.06 151.31-4.36L151.31-4.36Q151.64-8.63 155.39-8.81L155.39-8.81Q158.58-8.63 159.05-6L159.05-6L157.92-6Q157.45-7.78 155.34-7.83L155.34-7.83Q152.67-7.64 152.53-4.31L152.53-4.31Q152.53-0.75 155.39-0.75L155.39-0.75Q156.42-0.75 157.17-1.31L157.17-1.31Q158.11-2.06 158.06-3.61L158.06-3.61Z" transform="translate(-0.5602678571428572, 8.8125)"></path></g></g></g></g></g><defs v-gra="od"></defs></svg>